<svg width="213" height="94" viewBox="0 0 213 94" fill="none" xmlns="http://www.w3.org/2000/svg">
<g filter="url(#filter0_d_578_16059)">
<rect x="24" y="16" width="165" height="48" rx="24" fill="url(#paint0_linear_578_16059)" shape-rendering="crispEdges"/>
<path d="M50.24 30.824H60.628C60.208 29.48 59.76 28.248 59.284 27.1L62.364 26.596C62.756 27.828 63.176 29.256 63.568 30.824H73.844V33.4H50.24V30.824ZM49.288 48.324H63.036C64.66 44.684 66.116 40.12 67.348 34.688L70.176 35.416C69.056 40.26 67.712 44.572 66.116 48.324H74.796V50.9H49.288V48.324ZM56.736 34.688C57.968 38.272 59.032 42.416 59.984 47.092L57.128 47.82C56.288 43.592 55.224 39.532 53.936 35.612L56.736 34.688ZM82.628 35.332V38.58H88.508V35.332H82.628ZM88.508 32.952V29.872H82.628V32.952H88.508ZM79.8 51.6L78.876 49.052C79.632 48.772 80.024 48.324 80.024 47.68V27.492H90.972V41.044H82.628V48.184C84.756 47.568 86.66 46.924 88.34 46.252C87.864 45.468 87.388 44.712 86.912 43.928L88.928 42.64C90.664 45.3 91.98 47.624 92.904 49.584L90.832 51.04C90.44 50.2 90.02 49.36 89.572 48.464C86.716 49.668 83.44 50.704 79.8 51.6ZM100.52 48.548H98.28L97.58 45.972L99.652 46.056C100.436 46.056 100.828 45.664 100.828 44.936V30.012H96.544V52.3H93.884V27.52H103.488V45.524C103.488 47.54 102.48 48.548 100.52 48.548ZM108.744 34.744H118.096C118.544 34.156 118.908 33.54 119.188 32.924C116.78 33.008 114.26 33.092 111.684 33.148L111.292 30.852C112.916 30.628 115.184 29.088 118.096 26.288L120.728 27.184C119.3 28.584 117.872 29.816 116.416 30.824C119.524 30.712 122.548 30.572 125.488 30.376C124.816 29.76 124.088 29.172 123.36 28.584L125.404 27.296C128.148 29.368 130.248 31.188 131.704 32.728L129.492 34.268C128.988 33.68 128.428 33.092 127.812 32.504C125.908 32.616 123.92 32.7 121.904 32.812C121.624 33.484 121.316 34.128 120.952 34.744H133.412V37.152H126.972C128.624 38.552 130.976 39.644 134.056 40.456L132.908 42.892C128.82 41.408 125.88 39.504 124.06 37.152H119.104C116.864 39.504 113.616 41.464 109.388 42.976L108.184 40.624C111.32 39.728 113.812 38.58 115.688 37.152H108.744V34.744ZM120.952 37.712L123.024 38.944C121.148 41.296 118.236 43.172 114.26 44.572L113.084 42.5C116.668 41.296 119.272 39.7 120.952 37.712ZM128.204 42.08L130.528 43.116C127.952 47.708 122.324 50.928 113.7 52.748L112.188 50.676C120.588 48.94 125.908 46.056 128.204 42.08ZM124.508 40.064L126.58 41.436C123.192 45.188 119.02 47.484 114.036 48.38L112.524 46.364C117.704 45.524 121.708 43.424 124.508 40.064ZM142.784 26.428L145.416 26.652L145.052 30.124H161.544V32.672H144.8L144.408 36.62H159.92C159.92 44.432 159.36 48.968 158.296 50.2C157.232 51.376 154.964 51.964 151.464 51.964C150.568 51.964 149.616 51.908 148.636 51.852L147.936 49.416C149.364 49.556 150.372 49.64 150.932 49.64C153.9 49.64 155.692 49.136 156.28 48.156C156.896 47.092 157.232 44.096 157.232 39.112H141.44L142.784 26.428ZM138.024 43.004H153.816V45.552H138.024V43.004Z" fill="#FF9F0C"/>
</g>
<defs>
<filter id="filter0_d_578_16059" x="0" y="0" width="213" height="96" filterUnits="userSpaceOnUse" color-interpolation-filters="sRGB">
<feFlood flood-opacity="0" result="BackgroundImageFix"/>
<feColorMatrix in="SourceAlpha" type="matrix" values="0 0 0 0 0 0 0 0 0 0 0 0 0 0 0 0 0 0 127 0" result="hardAlpha"/>
<feOffset dy="8"/>
<feGaussianBlur stdDeviation="12"/>
<feComposite in2="hardAlpha" operator="out"/>
<feColorMatrix type="matrix" values="0 0 0 0 1 0 0 0 0 0.313726 0 0 0 0 0 0 0 0 0.4 0"/>
<feBlend mode="normal" in2="BackgroundImageFix" result="effect1_dropShadow_578_16059"/>
<feBlend mode="normal" in="SourceGraphic" in2="effect1_dropShadow_578_16059" result="shape"/>
</filter>
<linearGradient id="paint0_linear_578_16059" x1="24" y1="40" x2="177.637" y2="95.4717" gradientUnits="userSpaceOnUse">
<stop stop-color="white"/>
<stop offset="1" stop-color="white"/>
</linearGradient>
</defs>
</svg>
